<svg id="Layer_1" data-name="Layer 1" xmlns="http://www.w3.org/2000/svg" viewBox="0 0 1000 186.52"><defs><style>.cls-1{fill:#1d1934;}</style></defs><path class="cls-1" d="M321.75,122.07v19.61H259.24V49.55h23.42v72.52Z"/><path class="cls-1" d="M399.66,112.33H349.78c2.24,8.42,8.29,13.16,16.71,13.16a23.94,23.94,0,0,0,17-7.24l12,11.71c-7.24,7.91-17.9,12.51-30.93,12.51-23.16,0-37.64-14.48-37.64-36.06,0-22,15-36.46,37-36.46C388.87,70,401.24,86.4,399.66,112.33Zm-21.85-12.24c0-8.69-5.52-14.35-13.68-14.35-7.9,0-13.3,5.79-14.75,14.35Z"/><path class="cls-1" d="M426.63,141.68,399.91,70.74h23.43l15.27,50.15L454,70.74h22.64l-26.72,70.94Z"/><path class="cls-1" d="M549.29,112.33H499.41c2.24,8.42,8.29,13.16,16.71,13.16a24,24,0,0,0,17-7.24l12,11.71c-7.24,7.91-17.9,12.51-30.93,12.51-23.17,0-37.64-14.48-37.64-36.06,0-22,15-36.46,37-36.46C538.5,70,550.87,86.4,549.29,112.33Zm-21.85-12.24c0-8.69-5.53-14.35-13.68-14.35-7.9,0-13.3,5.79-14.75,14.35Z"/><path class="cls-1" d="M562.31,141.68V44h22.77v97.66Z"/><rect class="cls-1" x="49.95" y="113.66" width="96.91" height="25.28"/><rect class="cls-1" x="87.18" y="82.28" width="96.91" height="25.28"/><rect class="cls-1" x="124.41" y="50.9" width="96.91" height="25.28"/><path class="cls-1" d="M711.9,119.73c0,8.53-5.37,14.39-13.53,14.39-4.57,0-8-1.83-10.1-5.16v15.36H682.1v-39h6.17v4.93c2.1-3.32,5.53-5.15,10-5.15C706.37,105.12,711.9,111,711.9,119.73Zm-6.23-.22c0-5.32-3.6-9.24-8.7-9.24s-8.7,3.87-8.7,9.24c0,5.53,3.6,9.34,8.7,9.34S705.67,125,705.67,119.51Z"/><path class="cls-1" d="M724.51,111a10.38,10.38,0,0,1,9.88-5.91V111c-5.74-.32-9.39,3.06-9.88,7.94V133.9h-6.17V105.34h6.17Z"/><path class="cls-1" d="M766.61,119.62c0,8.59-6.07,14.5-14.88,14.5s-14.93-5.91-14.93-14.5,6.07-14.5,14.93-14.5S766.61,111,766.61,119.62Zm-23.63,0c0,5.53,3.6,9.29,8.75,9.29s8.7-3.76,8.7-9.29-3.6-9.24-8.7-9.24S743,114.19,743,119.67Z"/><path class="cls-1" d="M803.12,119.73c0,8.53-5.38,14.39-13.54,14.39-4.56,0-8-1.83-10.09-5.16v15.36h-6.18v-39h6.18v4.93c2.09-3.32,5.53-5.15,10-5.15C797.58,105.12,803.12,111,803.12,119.73Zm-6.23-.22c0-5.32-3.6-9.24-8.7-9.24s-8.7,3.87-8.7,9.24c0,5.53,3.6,9.34,8.7,9.34S796.89,125,796.89,119.51Z"/><path class="cls-1" d="M834.68,122H813.1a8.69,8.69,0,0,0,8.86,7.14,11.12,11.12,0,0,0,8-3.32l3.28,3.48a15.54,15.54,0,0,1-11.82,4.84c-8.8,0-14.6-5.86-14.6-14.45s6-14.49,14.44-14.55C831.35,105.12,835.43,111.67,834.68,122Zm-5.37-4.51c-.21-4.62-3.27-7.41-7.94-7.41-4.51,0-7.68,2.84-8.38,7.41Z"/><path class="cls-1" d="M847.3,111a10.38,10.38,0,0,1,9.88-5.91V111c-5.75-.32-9.4,3.06-9.88,7.94V133.9h-6.18V105.34h6.18Z"/><path class="cls-1" d="M878.44,132.07a13.68,13.68,0,0,1-7,2.1c-4.29,0-8-2.47-8-8.32V111h-4v-4.62h4V98.57h6.12v7.84H878V111h-8.43v13.69c0,3,1.13,3.86,3.06,3.86a9.92,9.92,0,0,0,4.3-1.23Z"/><path class="cls-1" d="M890.78,97.17a3.6,3.6,0,1,1-3.59-3.76A3.55,3.55,0,0,1,890.78,97.17Zm-6.66,36.73V105.34h6.12V133.9Z"/><path class="cls-1" d="M924.5,122H902.92a8.69,8.69,0,0,0,8.86,7.14,11.12,11.12,0,0,0,8.05-3.32l3.28,3.48a15.54,15.54,0,0,1-11.82,4.84c-8.8,0-14.6-5.86-14.6-14.45s6-14.49,14.44-14.55C921.17,105.12,925.25,111.67,924.5,122Zm-5.37-4.51c-.21-4.62-3.27-7.41-7.94-7.41s-7.68,2.84-8.38,7.41Z"/><path class="cls-1" d="M949.46,108l-2.25,4.57A16.77,16.77,0,0,0,939,110c-2.41,0-4.19.8-4.19,2.84,0,5.26,15.2,2.42,15.15,12.78,0,5.86-5.21,8.49-11,8.49-4.19,0-8.64-1.4-11.49-4l2.2-4.4a15.58,15.58,0,0,0,9.56,3.54c2.63,0,4.67-.91,4.67-3.06,0-5.85-15-2.57-15-12.88,0-5.8,5-8.27,10.53-8.27A18.07,18.07,0,0,1,949.46,108Z"/><path class="cls-1" d="M623,82.69V45.11h6.33V82.69Z"/><path class="cls-1" d="M686.57,64.92V82.69H680.4v-16c0-4.35-2.58-7-6.77-7-4.88.16-7.84,3.92-7.84,8.91V82.69h-6.17v-16c0-4.35-2.53-7-6.72-7-4.93.16-7.94,3.92-7.94,8.91V82.69h-6.12V54.13H645v5.53c2-4,5.64-5.75,10.36-5.75,5.1,0,8.59,2.52,9.93,6.88,1.83-4.78,5.64-6.88,10.85-6.88C682.65,53.91,686.57,58.1,686.57,64.92Z"/><path class="cls-1" d="M742.57,64.92V82.69h-6.18v-16c0-4.35-2.57-7-6.76-7-4.89.16-7.84,3.92-7.84,8.91V82.69h-6.18v-16c0-4.35-2.52-7-6.71-7-4.94.16-7.95,3.92-7.95,8.91V82.69h-6.12V54.13H701v5.53c2-4,5.64-5.75,10.37-5.75,5.1,0,8.59,2.52,9.93,6.88,1.83-4.78,5.64-6.88,10.85-6.88C738.65,53.91,742.57,58.1,742.57,64.92Z"/><path class="cls-1" d="M757.49,46a3.6,3.6,0,1,1-3.6-3.76A3.56,3.56,0,0,1,757.49,46Zm-6.66,36.73V54.13H757V82.69Z"/><path class="cls-1" d="M791.85,79.9c0,8.22-5.85,13.37-14.82,13.37a20.79,20.79,0,0,1-11.86-3.76l2.63-4.45a14.46,14.46,0,0,0,9,3.11c5.42,0,9-3.17,9-8.11v-3.6c-1.93,3.12-5.15,4.84-9.45,4.84-7.73,0-12.88-5.59-12.88-13.8S768.5,54,776.07,53.91c4.4,0,7.68,1.72,9.66,4.83V54.13h6.12Zm-6.12-12.24c0-5.16-3.38-8.76-8.21-8.76s-8.27,3.66-8.32,8.76,3.38,8.8,8.32,8.8S785.73,72.81,785.73,67.66Z"/><path class="cls-1" d="M806.62,59.82a10.38,10.38,0,0,1,9.88-5.91v5.91c-5.75-.32-9.4,3.06-9.88,7.94V82.69h-6.18V54.13h6.18Z"/><path class="cls-1" d="M837.6,79.2c-2,2.53-5.32,3.76-9.45,3.76-6.18,0-10-3.81-10-8.86,0-5.21,3.92-8.54,10.8-8.59h8.64v-.86c0-3.6-2.31-5.75-6.82-5.75a15,15,0,0,0-8.43,2.91l-2.52-4.3c4-2.36,6.87-3.6,12.3-3.6,7.35,0,11.49,3.76,11.54,10l0,18.74H837.6Zm-.06-6.55V70h-7.73c-4,0-5.91,1.07-5.91,3.81,0,2.58,2.1,4.24,5.54,4.24C833.84,78.07,837.22,75.76,837.54,72.65Z"/><path class="cls-1" d="M868.09,80.87a13.72,13.72,0,0,1-7,2.09c-4.3,0-8-2.47-8-8.32V59.82h-4V55.2h4V47.36h6.12V55.2h8.43v4.62h-8.43V73.51c0,2.95,1.13,3.86,3.06,3.86a9.92,9.92,0,0,0,4.3-1.23Z"/><path class="cls-1" d="M880.44,46a3.6,3.6,0,1,1-3.6-3.76A3.56,3.56,0,0,1,880.44,46Zm-6.66,36.73V54.13h6.12V82.69Z"/><path class="cls-1" d="M916.15,68.41c0,8.59-6.07,14.5-14.88,14.5S886.35,77,886.35,68.41s6.06-14.5,14.92-14.5S916.15,59.76,916.15,68.41Zm-23.63,0c0,5.53,3.6,9.29,8.75,9.29S910,74,910,68.46s-3.6-9.23-8.7-9.23S892.52,63,892.52,68.46Z"/><path class="cls-1" d="M949.92,64.92V82.69h-6.18v-16c0-4.3-2.58-6.93-6.87-6.93-4.73,0-7.68,3.33-8.11,7.79V82.69h-6.17V54.13h6.17V59.6c2-4,5.69-5.69,10.53-5.69C945.94,53.91,949.92,58.1,949.92,64.92Z"/><path class="cls-1" d="M652,143.63c-1.18-1.18-2.29-2.36-3.91-4.1a17.21,17.21,0,0,1-12.24,4.79c-8.15,0-12.87-5.48-12.87-11.75,0-5.72,3.42-9.64,8.2-12.25v-.18a14.44,14.44,0,0,1-3.48-8.77,10.16,10.16,0,0,1,10.63-10.31c5.22,0,9.26,3.48,9.26,8.88,0,4.41-2.55,7.89-9.2,11.19v.19c3.55,4.1,7.53,8.69,10.2,11.69,1.92-2.93,3.23-7,4-12.25h5c-1.12,6.59-2.92,11.81-6,15.48,2.24,2.35,4.41,4.72,6.9,7.39Zm-6.58-7.21c-2.49-2.74-7.15-7.83-11.81-13.18-2.24,1.44-5.41,4.11-5.41,8.52a8.26,8.26,0,0,0,8.58,8.45A11.74,11.74,0,0,0,645.44,136.42Zm-12.75-25.55c0,3,1.37,5.29,3.18,7.52,4.22-2.42,7-4.65,7-8.2,0-2.55-1.43-5.4-4.85-5.4S632.69,107.64,632.69,110.87Z"/></svg>